<svg width="51" height="45" viewBox="0 0 51 45" fill="none" xmlns="http://www.w3.org/2000/svg">
<path d="M25.5 32C29.6421 32 33 28.6421 33 24.5C33 20.3579 29.6421 17 25.5 17C21.3579 17 18 20.3579 18 24.5C18 28.6421 21.3579 32 25.5 32Z" fill="#EF9F81"/>
<path d="M17.85 0L13.1835 5H5.1C2.295 5 0 7.25 0 10V40C0 42.75 2.295 45 5.1 45H45.9C48.705 45 51 42.75 51 40V10C51 7.25 48.705 5 45.9 5H37.8165L33.15 0H17.85ZM25.5 37.5C18.462 37.5 12.75 31.9 12.75 25C12.75 18.1 18.462 12.5 25.5 12.5C32.538 12.5 38.25 18.1 38.25 25C38.25 31.9 32.538 37.5 25.5 37.5Z" fill="#EF9F81"/>
</svg>
