<svg width="92" height="108" viewBox="0 0 92 108" fill="none" xmlns="http://www.w3.org/2000/svg">
<mask id="path-1-inside-1_71_183" fill="white">
<path fill-rule="evenodd" clip-rule="evenodd" d="M40.6249 1.01662C26.5174 2.84399 14.7938 13.548 11.7357 27.393C10.2091 34.3039 10.9002 41.3426 13.9384 49.8334C15.8056 55.0511 16.4577 56.4487 20.2411 63.3401L22.8143 68.0276H27.8656C30.6436 68.0276 32.9168 67.9984 32.9168 67.9624C32.9168 67.9267 31.3129 65.0047 29.3528 61.4696C23.6333 51.1534 22.1014 47.6452 20.5489 41.3051C15.6814 21.4327 34.3609 4.26712 53.4724 11.0501C64.3141 14.898 71.508 26.3085 70.1329 37.476C69.219 44.8976 67.1648 50.1199 60.5727 61.7779L57.0777 67.9582L62.1087 67.995C66.0211 68.0231 67.1749 67.9924 67.299 67.8559C68.2628 66.7969 74.0701 55.7692 75.1444 52.9582C79.4907 41.5856 80.2354 32.8207 77.5587 24.5415C72.4767 8.82112 56.9116 -1.09313 40.6249 1.01662ZM59.5141 25.0961C59.2849 25.2401 57.8194 26.646 56.2579 28.2206L53.4184 31.0834H50.3423H47.2658L47.1049 33.0004C47.0168 34.0545 46.9444 35.0546 46.9444 35.2226V35.5279H51.8003H56.6562L56.7916 35.007C56.8662 34.7205 57.0218 34.1145 57.1381 33.6607C57.3387 32.8747 57.4429 32.7412 59.3202 30.8606L61.2912 28.8859L63.3192 28.8386C65.0528 28.7985 65.4053 28.7524 65.7481 28.5202C66.9046 27.7372 66.7418 25.5574 65.4874 25.0331C64.6936 24.7016 60.0646 24.7504 59.5141 25.0961ZM23.5238 31.3957C23.5696 31.5679 23.8362 32.5991 24.1159 33.6874L24.6244 35.6666H29.3873C32.4683 35.6666 34.1813 35.6167 34.2376 35.5252C34.2856 35.4476 34.2477 34.4164 34.1532 33.2336L33.9814 31.0834H28.7108H23.4398L23.5238 31.3957ZM35.0142 31.6736C35.0217 31.9984 35.0997 33.0139 35.1878 33.9304L35.3472 35.5972H40.6249H45.9027L46.0624 33.9304C46.1502 33.0139 46.2286 31.9984 46.2361 31.6736L46.2499 31.0834H40.6249H34.9999L35.0142 31.6736ZM25.0047 36.882C25.0073 37.0155 25.3722 38.5001 25.8158 40.1805L26.6217 43.236L30.8161 43.2727L35.0101 43.3095L34.9328 42.648C34.8623 42.0431 34.4446 36.9934 34.4446 36.7455C34.4446 36.6866 32.3194 36.639 29.7222 36.639C25.3156 36.639 25.0006 36.6551 25.0047 36.882ZM35.4166 36.771C35.4166 37.0027 35.8268 41.8192 35.9112 42.5764L35.9922 43.3054H40.6249H45.2577L45.3402 42.5764C45.4077 41.9767 45.8333 36.906 45.8333 36.7001C45.8333 36.6664 43.4896 36.639 40.6249 36.639C37.4284 36.639 35.4166 36.69 35.4166 36.771ZM46.8057 36.771C46.8057 37.0027 46.3954 41.8192 46.3111 42.5764L46.2301 43.3054H50.4027H54.5757L54.7808 42.5764C55.2863 40.7786 56.2501 37.0129 56.2501 36.8351C56.2501 36.6697 55.5027 36.639 51.5277 36.639C48.6379 36.639 46.8057 36.69 46.8057 36.771ZM26.9727 44.5189C27.0064 44.6535 27.2479 45.5921 27.5093 46.6042L27.9848 48.4444H31.7044H35.4244L35.3401 47.5762C35.2939 47.0989 35.2141 46.1771 35.1627 45.5276L35.0697 44.3471L30.9904 44.3104C27.1508 44.2759 26.9146 44.2879 26.9727 44.5189ZM36.1651 45.7012C36.2164 46.4842 36.2959 47.4217 36.3417 47.7847L36.4246 48.4444H40.6249H44.8253L44.9086 47.7847C44.9539 47.4217 45.0334 46.4842 45.0852 45.7012L45.1786 44.2777H40.6249H36.0713L36.1651 45.7012ZM46.0546 45.8404C46.0017 46.6995 45.9226 47.637 45.8783 47.9235L45.7981 48.4444H49.5308H53.2639L53.7379 46.6039C53.9986 45.5921 54.2401 44.6546 54.2749 44.5207C54.3338 44.2935 54.0747 44.2777 50.2444 44.2777H46.1506L46.0546 45.8404ZM30.3087 49.7692C27.0822 51.4009 28.2477 56.1487 31.8751 56.1487C36.3241 56.1487 36.4718 49.6489 32.0273 49.4437C31.1809 49.4047 30.9379 49.4509 30.3087 49.7692ZM47.8373 49.74C44.8242 51.1747 45.6192 55.8375 48.9353 56.1799C51.8172 56.4772 53.7732 53.409 52.2616 50.9636C51.3867 49.5487 49.3958 48.9979 47.8373 49.74ZM8.36819 81.8734C8.50169 81.9086 8.72069 81.9086 8.85419 81.8734C8.98806 81.8385 8.87856 81.81 8.61119 81.81C8.34381 81.81 8.23431 81.8385 8.36819 81.8734ZM9.34019 81.8734C9.47406 81.9086 9.69269 81.9086 9.82656 81.8734C9.96006 81.8385 9.85094 81.81 9.58356 81.81C9.31619 81.81 9.20669 81.8385 9.34019 81.8734ZM30.9481 82.5052C31.1764 82.9072 33.9211 87.7672 37.0478 93.3056C44.5531 106.6 44.8962 107.195 45.0646 107.193C45.1437 107.192 45.9214 105.895 46.7929 104.311C47.6644 102.727 50.8362 97.0698 53.8414 91.7403C56.8467 86.4109 59.3056 81.9881 59.3056 81.9124C59.3056 81.8227 57.5449 81.7871 54.2899 81.8107L49.2743 81.8471L47.2099 85.5266C46.0741 87.5505 45.0968 89.2215 45.0379 89.2402C44.9791 89.259 43.9906 87.6033 42.8416 85.5607L40.7528 81.8471L35.6431 81.8107L30.5333 81.7744L30.9481 82.5052ZM81.8404 81.8734C81.9739 81.9086 82.1929 81.9086 82.3264 81.8734C82.4603 81.8385 82.3508 81.81 82.0834 81.81C81.8161 81.81 81.7065 81.8385 81.8404 81.8734ZM82.8124 81.8734C82.9463 81.9086 83.1649 81.9086 83.2988 81.8734C83.4323 81.8385 83.3228 81.81 83.0554 81.81C82.7884 81.81 82.6789 81.8385 82.8124 81.8734Z"/>
</mask>
<path fill-rule="evenodd" clip-rule="evenodd" d="M40.6249 1.01662C26.5174 2.84399 14.7938 13.548 11.7357 27.393C10.2091 34.3039 10.9002 41.3426 13.9384 49.8334C15.8056 55.0511 16.4577 56.4487 20.2411 63.3401L22.8143 68.0276H27.8656C30.6436 68.0276 32.9168 67.9984 32.9168 67.9624C32.9168 67.9267 31.3129 65.0047 29.3528 61.4696C23.6333 51.1534 22.1014 47.6452 20.5489 41.3051C15.6814 21.4327 34.3609 4.26712 53.4724 11.0501C64.3141 14.898 71.508 26.3085 70.1329 37.476C69.219 44.8976 67.1648 50.1199 60.5727 61.7779L57.0777 67.9582L62.1087 67.995C66.0211 68.0231 67.1749 67.9924 67.299 67.8559C68.2628 66.7969 74.0701 55.7692 75.1444 52.9582C79.4907 41.5856 80.2354 32.8207 77.5587 24.5415C72.4767 8.82112 56.9116 -1.09313 40.6249 1.01662ZM59.5141 25.0961C59.2849 25.2401 57.8194 26.646 56.2579 28.2206L53.4184 31.0834H50.3423H47.2658L47.1049 33.0004C47.0168 34.0545 46.9444 35.0546 46.9444 35.2226V35.5279H51.8003H56.6562L56.7916 35.007C56.8662 34.7205 57.0218 34.1145 57.1381 33.6607C57.3387 32.8747 57.4429 32.7412 59.3202 30.8606L61.2912 28.8859L63.3192 28.8386C65.0528 28.7985 65.4053 28.7524 65.7481 28.5202C66.9046 27.7372 66.7418 25.5574 65.4874 25.0331C64.6936 24.7016 60.0646 24.7504 59.5141 25.0961ZM23.5238 31.3957C23.5696 31.5679 23.8362 32.5991 24.1159 33.6874L24.6244 35.6666H29.3873C32.4683 35.6666 34.1813 35.6167 34.2376 35.5252C34.2856 35.4476 34.2477 34.4164 34.1532 33.2336L33.9814 31.0834H28.7108H23.4398L23.5238 31.3957ZM35.0142 31.6736C35.0217 31.9984 35.0997 33.0139 35.1878 33.9304L35.3472 35.5972H40.6249H45.9027L46.0624 33.9304C46.1502 33.0139 46.2286 31.9984 46.2361 31.6736L46.2499 31.0834H40.6249H34.9999L35.0142 31.6736ZM25.0047 36.882C25.0073 37.0155 25.3722 38.5001 25.8158 40.1805L26.6217 43.236L30.8161 43.2727L35.0101 43.3095L34.9328 42.648C34.8623 42.0431 34.4446 36.9934 34.4446 36.7455C34.4446 36.6866 32.3194 36.639 29.7222 36.639C25.3156 36.639 25.0006 36.6551 25.0047 36.882ZM35.4166 36.771C35.4166 37.0027 35.8268 41.8192 35.9112 42.5764L35.9922 43.3054H40.6249H45.2577L45.3402 42.5764C45.4077 41.9767 45.8333 36.906 45.8333 36.7001C45.8333 36.6664 43.4896 36.639 40.6249 36.639C37.4284 36.639 35.4166 36.69 35.4166 36.771ZM46.8057 36.771C46.8057 37.0027 46.3954 41.8192 46.3111 42.5764L46.2301 43.3054H50.4027H54.5757L54.7808 42.5764C55.2863 40.7786 56.2501 37.0129 56.2501 36.8351C56.2501 36.6697 55.5027 36.639 51.5277 36.639C48.6379 36.639 46.8057 36.69 46.8057 36.771ZM26.9727 44.5189C27.0064 44.6535 27.2479 45.5921 27.5093 46.6042L27.9848 48.4444H31.7044H35.4244L35.3401 47.5762C35.2939 47.0989 35.2141 46.1771 35.1627 45.5276L35.0697 44.3471L30.9904 44.3104C27.1508 44.2759 26.9146 44.2879 26.9727 44.5189ZM36.1651 45.7012C36.2164 46.4842 36.2959 47.4217 36.3417 47.7847L36.4246 48.4444H40.6249H44.8253L44.9086 47.7847C44.9539 47.4217 45.0334 46.4842 45.0852 45.7012L45.1786 44.2777H40.6249H36.0713L36.1651 45.7012ZM46.0546 45.8404C46.0017 46.6995 45.9226 47.637 45.8783 47.9235L45.7981 48.4444H49.5308H53.2639L53.7379 46.6039C53.9986 45.5921 54.2401 44.6546 54.2749 44.5207C54.3338 44.2935 54.0747 44.2777 50.2444 44.2777H46.1506L46.0546 45.8404ZM30.3087 49.7692C27.0822 51.4009 28.2477 56.1487 31.8751 56.1487C36.3241 56.1487 36.4718 49.6489 32.0273 49.4437C31.1809 49.4047 30.9379 49.4509 30.3087 49.7692ZM47.8373 49.74C44.8242 51.1747 45.6192 55.8375 48.9353 56.1799C51.8172 56.4772 53.7732 53.409 52.2616 50.9636C51.3867 49.5487 49.3958 48.9979 47.8373 49.74ZM8.36819 81.8734C8.50169 81.9086 8.72069 81.9086 8.85419 81.8734C8.98806 81.8385 8.87856 81.81 8.61119 81.81C8.34381 81.81 8.23431 81.8385 8.36819 81.8734ZM9.34019 81.8734C9.47406 81.9086 9.69269 81.9086 9.82656 81.8734C9.96006 81.8385 9.85094 81.81 9.58356 81.81C9.31619 81.81 9.20669 81.8385 9.34019 81.8734ZM30.9481 82.5052C31.1764 82.9072 33.9211 87.7672 37.0478 93.3056C44.5531 106.6 44.8962 107.195 45.0646 107.193C45.1437 107.192 45.9214 105.895 46.7929 104.311C47.6644 102.727 50.8362 97.0698 53.8414 91.7403C56.8467 86.4109 59.3056 81.9881 59.3056 81.9124C59.3056 81.8227 57.5449 81.7871 54.2899 81.8107L49.2743 81.8471L47.2099 85.5266C46.0741 87.5505 45.0968 89.2215 45.0379 89.2402C44.9791 89.259 43.9906 87.6033 42.8416 85.5607L40.7528 81.8471L35.6431 81.8107L30.5333 81.7744L30.9481 82.5052ZM81.8404 81.8734C81.9739 81.9086 82.1929 81.9086 82.3264 81.8734C82.4603 81.8385 82.3508 81.81 82.0834 81.81C81.8161 81.81 81.7065 81.8385 81.8404 81.8734ZM82.8124 81.8734C82.9463 81.9086 83.1649 81.9086 83.2988 81.8734C83.4323 81.8385 83.3228 81.81 83.0554 81.81C82.7884 81.81 82.6789 81.8385 82.8124 81.8734Z" fill="#24F49C" stroke="black" stroke-width="2" mask="url(#path-1-inside-1_71_183)"/>
<path fill-rule="evenodd" clip-rule="evenodd" d="M30.7949 72.1597C30.298 73.0571 29.8454 73.9477 29.7892 74.139C29.6054 74.7604 29.1648 75.5276 28.99 75.5302C28.8963 75.5314 28.6754 75.6844 28.4995 75.87L28.1797 76.2071L28.5689 76.1797C28.9537 76.1531 28.9578 76.1614 28.915 76.8682C28.8749 77.5279 29.5327 78.6802 29.7978 78.4151C29.9688 78.2437 30.4945 76.0834 30.3648 76.0834C29.8503 76.0834 30.9205 75.6919 31.6319 75.6199C32.6373 75.5183 32.6305 75.5036 32.1382 76.6736C31.6957 77.7251 31.6604 78.3319 32.0197 78.7286C32.59 79.359 32.7415 79.3403 33.121 78.5906C33.5429 77.7581 33.5647 77.6085 33.199 78.0473C33.0442 78.2329 32.9238 78.2963 32.9212 78.1931C32.9185 78.0915 32.8458 78.0551 32.7562 78.1106C32.656 78.1725 32.6335 78.1485 32.6965 78.0469C32.7517 77.9576 32.8552 77.9205 32.926 77.9644C32.9973 78.0082 33.0554 77.8549 33.0554 77.6235C33.0554 77.3186 33.1683 77.1191 33.4653 76.8998C33.6907 76.7329 33.904 76.5281 33.9389 76.4441C33.9738 76.3601 34.105 76.0515 34.2307 75.7582C34.3559 75.465 34.393 75.2655 34.3124 75.315C33.9727 75.525 34.2044 75.0386 34.6398 74.628C35.6103 73.713 36.292 71.7367 35.8053 71.25C35.476 70.9204 35.2045 71.091 34.7995 71.8822C33.8283 73.7794 33.6247 73.9999 32.8454 73.9999C32.428 73.9999 32.0167 74.0899 31.8273 74.2226C31.4399 74.4937 31.2637 74.3711 31.5588 74.0355C32.5064 72.9574 32.9354 71.256 32.3849 70.7576C31.9057 70.3241 31.7208 70.4872 30.7949 72.1597ZM46.4849 71.0164C46.357 71.2852 46.0795 71.5789 45.8692 71.6696C45.6584 71.76 45.4657 71.847 45.4405 71.8631C45.2883 71.9599 45.3378 72.7181 45.5088 72.9105C45.6899 73.1137 45.6824 73.2015 45.4435 73.6744C43.8059 76.9125 43.5412 79.0215 44.7757 78.9967C44.9538 78.9934 45.6082 77.1142 45.4949 76.9312C45.3955 76.7704 45.6873 75.9446 45.8433 75.9446C45.91 75.9446 46.0619 75.7571 46.1804 75.5276C46.2989 75.2985 46.498 75.111 46.6233 75.111C46.9173 75.111 48.0805 74.4307 48.0025 74.3047C47.9699 74.2515 48.0963 74.199 48.2834 74.1877C48.8272 74.1551 49.7219 73.4786 49.9529 72.9259C50.3249 72.0356 49.9308 71.6077 48.5763 71.4304C48.2133 71.3831 47.9167 71.2852 47.9167 71.2136C47.9167 70.4992 46.8048 70.3459 46.4849 71.0164ZM57.2898 71.6651C54.0862 76.1396 54.0134 78.9608 57.1394 77.4907C57.6048 77.2717 58.378 76.95 58.8573 76.7764C59.3365 76.6027 59.7025 76.434 59.6703 76.4017C59.638 76.3695 59.0707 76.5341 58.4095 76.7674C57.7484 77.001 57.2418 77.1364 57.2834 77.0685C57.4293 76.8326 59.428 76.188 59.7577 76.2709C59.9362 76.3155 60.2669 76.2971 60.4923 76.2296L60.9025 76.1074L60.4859 76.0853C60.1087 76.065 60.1349 76.0395 60.7638 75.8156C62.1228 75.3319 62.0114 75.3026 62.0335 76.149C62.0883 78.2306 63.8489 78.8198 66.5913 77.6741C67.3874 77.3415 67.0953 77.2965 66.1814 77.6108C65.737 77.7638 65.2109 77.8841 65.0129 77.8778L64.6525 77.8669L64.9998 77.7465C65.191 77.6801 65.6129 77.5579 65.9373 77.4742C66.2935 77.3827 66.5275 77.2421 66.5275 77.1195C66.5275 77.0081 66.6007 76.9166 66.6899 76.9166C66.7788 76.9166 66.8114 76.8765 66.7623 76.827C66.7132 76.7779 66.4057 76.8364 66.0794 76.9571C65.6905 77.1011 65.1033 77.1679 64.375 77.151L63.2639 77.1251L63.2935 76.5C63.3145 76.0609 63.2842 75.9371 63.1915 76.0834C63.1192 76.1977 63.0588 76.239 63.0577 76.1749C63.0475 75.615 64.0503 75.0949 65.6737 74.8189C66.775 74.6314 66.9543 74.4682 66.6614 73.9211C66.469 73.5611 65.9947 73.4794 65.3909 73.7017C64.5367 74.0167 64.282 74.0257 64.4369 73.7359C64.63 73.3751 64.6218 73.2671 64.4095 73.389C64.3087 73.4471 64.2847 73.4359 64.3518 73.3624C64.4155 73.293 64.5093 73.2319 64.5599 73.2266C64.6109 73.221 64.9027 73.1516 65.2083 73.0717C65.5139 72.9919 66.244 72.8201 66.8313 72.6896C67.4185 72.5595 67.972 72.3641 68.062 72.2561C68.2012 72.0885 68.1603 72.0817 67.786 72.2122C67.5445 72.2966 67.3139 72.3326 67.2742 72.2925C67.234 72.2527 67.3308 72.1785 67.4894 72.1282C67.9904 71.9692 67.804 71.8132 66.9922 71.7116C65.8728 71.5717 65.8203 71.5414 66.0029 71.1405C66.19 70.7299 66.1428 70.677 65.4963 70.572C65.0759 70.5037 64.9199 70.5506 64.6109 70.8386C64.4047 71.031 64.0953 71.2605 63.9235 71.349C63.7267 71.4502 63.6112 71.6374 63.6112 71.8545C63.6112 72.123 62.3785 74.8372 62.1385 75.0979C62.11 75.1286 61.6477 75.1661 61.1107 75.1811C60.5737 75.1957 60.0888 75.2576 60.0325 75.318C59.9763 75.3784 60.118 75.3859 60.3472 75.3349C60.6348 75.2704 60.7015 75.2827 60.5632 75.375C60.4525 75.4481 60.0622 75.4729 59.695 75.4294C59.2319 75.3742 59.0275 75.4001 59.0275 75.5134C59.0275 75.6364 58.9555 75.6379 58.7339 75.5194C58.4624 75.3739 57.4949 75.4316 56.9962 75.6232C56.7153 75.7309 56.764 75.4335 57.1019 74.9767C57.271 74.7476 57.3614 74.4787 57.3119 74.3501C57.2643 74.226 57.2834 74.1604 57.3543 74.2042C57.6967 74.4157 59.0965 71.8395 58.9368 71.2916C58.6323 70.2457 58.2427 70.3342 57.2898 71.6651ZM84.6528 70.9444C84.433 71.1735 84.178 71.361 84.0862 71.361C83.8998 71.361 83.7498 71.6689 83.7498 72.0514C83.7498 72.1894 83.4067 73.0125 82.9874 73.8802C81.241 77.4934 83.272 79.4753 86.8529 77.6528C87.4694 77.3389 87.226 77.3235 86.3294 77.6194C85.8798 77.7675 85.3814 77.8823 85.2213 77.8744C85.0615 77.8665 85.3567 77.7251 85.8775 77.5601C86.3988 77.3951 86.7798 77.2151 86.7243 77.1596C86.6692 77.1045 86.8522 76.9639 87.1315 76.8472C87.9625 76.5 87.7083 76.4929 86.7014 76.8353C85.5682 77.2208 83.7277 77.2909 83.398 76.9616C83.1779 76.7415 83.1164 76.4355 83.317 76.5596C83.3849 76.6012 83.5098 76.3586 83.5949 76.0204C83.7888 75.2509 83.7929 75.2482 85.5554 74.8901C86.9245 74.6119 87.0115 74.5744 86.9767 74.2732C86.8938 73.5604 86.4295 73.4265 85.2663 73.7794L84.6295 73.9729V73.5641C84.6295 73.3395 84.6715 73.2236 84.7229 73.3065C84.7863 73.4089 84.8703 73.3924 84.9843 73.2547C85.0769 73.1434 85.4778 73.0076 85.8749 72.954C86.7674 72.8325 88.2925 72.3727 88.4047 72.1912C88.4572 72.1061 88.3537 72.1076 88.1238 72.195C87.5898 72.3979 87.2144 72.3536 87.703 72.1451C88.1849 71.94 88.0792 71.8455 87.2223 71.7142C86.155 71.5511 86.113 71.5256 86.1989 71.0951C86.3365 70.4066 85.2678 70.3024 84.6528 70.9444ZM72.2163 70.9792C71.581 71.4071 68.5818 75.1312 68.0617 76.1377C67.4425 77.3355 67.5978 78.0641 68.5803 78.5726C68.9118 78.744 68.9568 78.6833 69.4469 77.3963C69.6412 76.8859 72.4998 75.6401 72.4998 76.0661C72.4998 76.152 72.4462 76.2221 72.3802 76.2221C72.3145 76.2221 72.2909 76.3815 72.3284 76.5761C72.3708 76.7981 72.3153 76.992 72.1795 77.097C71.6602 77.4979 71.8222 78.3619 72.4829 78.714C72.9082 78.9405 72.9899 78.8126 73.1317 77.6981C73.1913 77.2301 73.2483 76.8161 73.258 76.7779C73.2682 76.7396 73.3233 76.4741 73.3807 76.1876C73.4568 75.8055 73.555 75.6668 73.7482 75.6668C74.1419 75.6668 74.2042 75.4474 73.9495 74.955C73.7508 74.5714 73.7433 74.4071 73.8925 73.7044C74.131 72.5805 73.9304 71.0835 73.5415 71.0835C73.4433 71.0835 73.327 70.9897 73.2832 70.875C73.1688 70.5769 72.7525 70.6177 72.2163 70.9792ZM75.925 72.8542C75.6565 79.3215 76.1947 79.5353 80.3283 74.6051C80.7217 74.1356 80.8004 73.9226 80.5207 74.0835C80.4198 74.1416 80.3958 74.1304 80.4629 74.0569C80.5267 73.9875 80.623 73.9305 80.6774 73.9305C80.8064 73.9305 82.4752 72.2812 83.0662 71.5695L83.5274 71.0137L83.0137 71.4926C82.489 71.9812 82.3042 71.9539 82.7429 71.4525C82.8914 71.2826 82.909 71.2196 82.7887 71.2905C82.6417 71.3771 82.6139 71.3482 82.6803 71.1754C82.8337 70.7756 82.6027 70.9192 81.7747 71.7386C81.3333 72.1755 80.9722 72.4691 80.9722 72.3911C80.9722 72.3127 81.1908 72.0367 81.4582 71.7776C81.9914 71.2612 82.1335 70.872 81.6318 71.3036C81.46 71.4514 81.0805 71.6932 80.7888 71.841C80.497 71.9887 80.0017 72.4256 79.6882 72.8119C78.0344 74.8489 77.0834 75.6094 77.0834 74.8946C77.0834 74.7082 77.017 74.5556 76.936 74.5556C76.8554 74.5556 76.8284 74.4919 76.8764 74.4142C76.9244 74.3366 77.014 74.3044 77.0759 74.3426C77.3605 74.5185 77.4464 72.8595 77.1963 72.024C77.0343 71.4829 76.4028 70.6665 76.1467 70.6665C76.0739 70.6665 75.9753 71.6419 75.925 72.8542ZM25.1759 71.2159C24.3472 71.5144 23.674 71.9557 23.4719 72.3337C23.1273 72.978 23.4903 74.3246 24.0678 74.5444C24.4604 74.6936 25.4167 75.567 25.4167 75.7762C25.4167 76.3661 23.0594 76.9605 22.5644 76.4955C22.0968 76.056 21.8339 76.4385 22.0833 77.1945C22.462 78.3424 23.9752 78.7972 24.7278 77.9899C24.8759 77.8309 25.0364 77.7401 25.0848 77.7885C25.2014 77.9051 26.3594 77.2913 26.8402 76.8578C27.4038 76.3496 27.265 74.6944 26.6587 74.6944C26.476 74.6944 24.7222 73.5637 24.7222 73.446C24.7222 73.3875 24.8628 73.2394 25.0345 73.1171C25.312 72.9195 25.3162 72.9037 25.0694 72.9742C24.8508 73.0369 24.8347 73.0237 24.9933 72.9112C25.1043 72.8325 25.2382 72.795 25.291 72.8276C25.3439 72.8602 25.5967 72.8014 25.8532 72.6967C26.6155 72.3855 27.6524 72.2752 27.5602 72.5152C27.5133 72.6375 27.5935 72.7421 27.7702 72.7882C27.9273 72.8295 28.0248 72.813 27.9869 72.7515C27.949 72.6904 28.0117 72.6045 28.1257 72.5606C28.4602 72.4324 28.3807 71.6737 27.9922 71.2852C27.559 70.8517 26.2754 70.8202 25.1759 71.2159ZM5.45991 71.3321C1.73804 73.3264 1.28804 78.2618 4.93042 77.1375C5.57054 76.9403 5.60841 77.2447 5.08004 78.3435C4.49054 79.569 4.55541 79.9886 5.37704 80.2598C5.87954 80.4259 6.23391 80.1953 6.24629 79.6946C6.24891 79.5799 6.40154 79.1171 6.58529 78.666C6.76904 78.2153 6.88904 77.7675 6.85229 77.6719C6.74579 77.3944 7.15491 76.7317 7.78266 76.1647C8.40516 75.6022 8.57241 74.9419 8.20454 74.4982C7.97279 74.2192 7.76091 74.2114 7.86629 74.4862C7.91016 74.6006 7.87716 74.6944 7.79241 74.6944C7.70804 74.6944 7.64616 74.6475 7.65516 74.5901C7.75979 73.9282 7.45416 74.1146 6.65016 75.2025C6.18629 75.8306 6.03329 75.9382 5.41454 76.0706C4.22617 76.3256 2.94329 76.1782 3.40641 75.8404C3.48516 75.783 3.66629 75.4706 3.80954 75.1462C4.38179 73.8487 6.46791 72.3825 7.56629 72.5062C8.25591 72.5839 8.33129 72.2752 7.80291 71.5346C7.41929 70.9969 6.27066 70.8979 5.45991 71.3321ZM12.3918 71.4607C10.4684 72.4237 9.30554 74.0415 9.30554 75.7534C9.30554 76.83 9.33254 76.8832 10.2217 77.5612C10.8374 78.0307 11.9755 77.9831 12.3614 77.4716C12.5039 77.283 12.6352 77.2147 12.6888 77.3017C12.8575 77.5747 13.9169 76.9462 13.8172 76.632C13.7665 76.473 13.7958 76.3612 13.8877 76.3612C13.9735 76.3612 14.0054 76.4235 13.9582 76.5C13.768 76.8079 14.2432 76.6095 14.812 76.1434C15.1447 75.8711 15.4165 75.6919 15.4165 75.7455C15.4165 75.9615 15.9989 75.0847 16.108 74.7049C16.3158 73.9807 16.054 73.3121 15.2864 72.6064C14.8998 72.2509 14.5833 71.8601 14.5833 71.7379C14.5833 71.0576 13.4763 70.9177 12.3918 71.4607ZM39.3809 71.5384C36.5429 73.0744 35.4352 76.1617 37.2502 77.4765C37.981 78.006 38.8777 78.0484 39.3595 77.5762C39.535 77.4045 39.8508 77.2511 40.0619 77.2358C40.5142 77.2028 41.2582 76.7572 41.0032 76.6725C40.9087 76.641 40.8708 76.5514 40.9192 76.4734C40.975 76.383 41.0482 76.398 41.1198 76.5142C41.2105 76.6609 41.2852 76.65 41.4955 76.4599C41.6399 76.329 41.8162 76.2221 41.887 76.2221C41.9583 76.2221 42.0959 76.0946 42.1934 75.939C42.2905 75.7834 42.4207 75.687 42.4825 75.7252C42.6607 75.8355 43.207 75.0015 43.2895 74.4934C43.4073 73.7674 43.1215 73.1535 42.3614 72.4991C41.9793 72.1702 41.6665 71.8207 41.6665 71.7221C41.6665 71.0036 40.5367 70.9129 39.3809 71.5384ZM73.1943 72.2569C73.1943 72.6667 72.841 73.8304 72.6775 73.9586C72.5605 74.0505 72.5017 74.2207 72.5463 74.3366C72.6063 74.4934 72.4762 74.5879 72.0427 74.7019C71.7213 74.7866 71.2552 74.9737 71.0069 75.1177C70.4227 75.4567 70.438 75.3615 71.1112 74.4701C71.4164 74.0651 71.6665 73.6376 71.6665 73.5199C71.6665 73.4021 71.7292 73.3054 71.8057 73.3054C71.8825 73.3054 72.1709 73.0556 72.4469 72.75C72.8868 72.2632 73.1943 72.0604 73.1943 72.2569ZM14.617 73.5071L14.998 73.9665L14.4783 74.5226C13.792 75.2569 10.5554 76.6425 10.5554 76.2022C10.5554 75.8535 11.1715 74.9621 11.8987 74.2582C13.285 72.9172 13.9705 72.7275 14.617 73.5071ZM41.7172 73.473C42.3284 74.2541 41.8087 74.7967 39.5834 75.7016C37.6297 76.4959 37.4257 76.4794 37.9042 75.5674C38.8627 73.7396 41.005 72.5629 41.7172 73.473ZM48.8275 73.7962C48.6794 73.9084 48.4953 73.9999 48.4192 73.9999C48.3427 73.9999 48.4015 73.9084 48.5497 73.7962C48.6982 73.6837 48.8819 73.5922 48.9584 73.5922C49.0345 73.5922 48.9757 73.6837 48.8275 73.7962ZM47.5777 74.4904C47.269 74.724 47.0834 74.7521 47.0834 74.5657C47.0834 74.4949 47.1925 74.4086 47.3264 74.3734C47.7805 74.2549 47.8477 74.2864 47.5777 74.4904ZM38.3609 74.7221C38.272 74.8114 38.1528 74.838 38.0965 74.7817C38.0403 74.7255 38.0842 74.6235 38.1944 74.5556C38.4539 74.3951 38.5709 74.5125 38.3609 74.7221ZM33.9584 76.0834C33.8324 76.3267 33.7027 76.4989 33.6697 76.4659C33.6367 76.4332 33.7105 76.2045 33.8332 75.9585C33.9562 75.7121 34.0859 75.5396 34.1219 75.5756C34.1575 75.6116 34.084 75.84 33.9584 76.0834ZM16.6034 76.3957C16.5738 76.4914 16.5074 76.8195 16.4564 77.1247C16.405 77.43 16.1377 78.0454 15.8624 78.4916C15.4394 79.1768 15.1533 80.1113 15.3667 80.1113C15.7233 80.1113 16.63 79.3927 17.218 78.6446L17.9437 77.7217L17.7097 77.1094C17.4232 76.359 16.7508 75.9255 16.6034 76.3957ZM48.6704 76.8735C48.6115 77.271 48.3209 77.9737 47.9534 78.6075C46.8798 80.4604 47.9444 80.5054 49.3402 78.6664C50.086 77.6835 50.1314 77.4315 49.6825 76.7636C49.1782 76.0129 48.7919 76.0549 48.6704 76.8735ZM70.1362 76.6009C69.9749 76.7138 69.8069 76.77 69.7627 76.7257C69.7184 76.6815 69.7848 76.6061 69.9097 76.5581C70.0349 76.5101 70.1032 76.4156 70.0612 76.3481C70.0195 76.2806 70.0852 76.2637 70.2074 76.3106C70.3975 76.3837 70.3874 76.4246 70.1362 76.6009Z" fill="#727894"/>
<path fill-rule="evenodd" clip-rule="evenodd" d="M37.2222 68.034C10.0009 68.1026 7.20903 68.13 6.37916 68.3389C3.35253 69.1005 1.55103 70.3691 0.594029 72.4125C-0.187472 74.0809 0.192778 77.8987 1.19853 78.486C1.30315 78.5471 1.38903 78.6686 1.38903 78.7564C1.38903 78.9814 2.09815 79.6946 2.32203 79.6946C2.42478 79.6946 2.54478 79.7884 2.58865 79.9027C2.63253 80.0175 2.75553 80.1112 2.86203 80.1112C2.96853 80.1112 3.05553 80.1611 3.05553 80.2222C3.05553 80.283 3.28991 80.4161 3.57641 80.5174C3.86291 80.619 4.18166 80.7694 4.28478 80.8519C4.38791 80.9344 4.5649 81.0154 4.67778 81.0319C4.79065 81.0484 4.98715 81.1084 5.11503 81.1646C5.2429 81.2212 5.39403 81.2809 5.45141 81.297C5.50878 81.3131 5.57103 81.3394 5.59015 81.3555C5.62428 81.3836 5.96103 81.4466 6.66678 81.5569C6.85766 81.5869 7.01403 81.6217 7.01403 81.6345C7.01403 81.8201 83.2872 81.9322 84.1665 81.7481C84.3578 81.7084 84.6259 81.6285 84.7628 81.5707C84.9 81.513 85.0504 81.504 85.0973 81.5512C85.1445 81.5981 85.266 81.5674 85.3673 81.4834C85.4689 81.399 85.6407 81.3641 85.7487 81.4054C85.8567 81.447 85.9875 81.4384 86.0397 81.3862C86.0918 81.3341 86.1758 81.2861 86.2268 81.2797C86.2778 81.273 86.424 81.2212 86.5515 81.1646C86.6794 81.1084 86.8669 81.0465 86.9685 81.0274C87.2562 80.9734 88.5364 80.3314 88.5882 80.2151C88.6133 80.1581 88.6943 80.1112 88.7674 80.1112C89.4567 80.1112 91.0917 77.9149 91.4599 76.4947C92.4541 72.6574 90.0837 69.4676 85.4164 68.3625C83.9251 68.0092 73.9343 67.9414 37.2222 68.034ZM32.4563 70.6909C33.0525 71.2507 32.6775 72.8756 31.6804 74.0539C31.4637 74.3096 31.4697 74.31 31.9324 74.0734C32.2455 73.9129 32.5853 73.8547 32.9337 73.9012C33.5194 73.98 33.651 73.8274 34.7359 71.8125C35.3543 70.6639 36.111 70.7501 36.111 71.9696C36.111 72.4774 35.1672 74.3917 34.827 74.574C34.6887 74.6479 34.608 74.7611 34.6482 74.8256C34.7869 75.0502 33.6285 77.3025 33.2985 77.4491C33.0975 77.5384 33.1969 77.7405 33.4028 77.6614C33.6743 77.5571 33.6705 77.5807 33.2712 78.4837C32.8309 79.4797 32.7578 79.5101 32.1567 78.9431C31.6335 78.4496 31.4678 76.6819 31.9305 76.5277C32.0179 76.4989 32.184 76.2911 32.3003 76.0669L32.511 75.6589L31.6613 75.6926C30.6807 75.7312 30.7133 75.6941 30.2798 77.2639C29.889 78.6799 29.8549 78.7072 29.2384 78.1087C28.7393 77.6239 28.7269 77.5882 28.8225 76.8952L28.9208 76.1812L28.3493 76.2581C27.7182 76.3429 27.5813 76.1512 28.125 75.9446C28.3159 75.8719 28.4723 75.7552 28.4723 75.6851C28.4723 75.615 28.6317 75.5179 28.8263 75.4691C29.1454 75.3889 29.7222 74.4367 29.7222 73.9901C29.7222 73.8765 31.0054 71.4784 31.4817 70.7014C31.7228 70.3076 32.0445 70.3042 32.4563 70.6909ZM47.3322 70.4779C47.5069 70.5247 47.7387 70.7344 47.847 70.944C48.0124 71.2635 48.1549 71.3355 48.7362 71.391C50.6824 71.5781 50.622 73.2814 48.636 74.2189C48.3552 74.3516 47.8958 74.604 47.6157 74.7799C47.3355 74.9561 46.9474 75.1399 46.7528 75.189C46.5582 75.2377 46.3613 75.3964 46.3152 75.5419C46.269 75.687 46.1037 75.8741 45.948 75.9574C45.7624 76.0567 45.7118 76.1561 45.801 76.2454C45.8907 76.335 45.8415 76.6301 45.6589 77.1007C45.5059 77.496 45.3049 78.1009 45.2123 78.4444C45.0143 79.1805 44.5988 79.2525 44.0625 78.6442C43.5424 78.0547 43.7727 77.1371 45.2738 73.818C45.519 73.2761 45.5434 73.1107 45.4032 72.942C45.0087 72.4665 45.21 71.7259 45.7628 71.6194C45.9109 71.5909 46.2105 71.3021 46.428 70.9781C46.8514 70.3477 46.8499 70.3489 47.3322 70.4779ZM58.662 70.6766C59.2789 71.1622 58.9212 72.681 57.8952 73.9305C57.5577 74.3419 56.9445 75.3382 56.9445 75.4755C56.9445 75.5145 57.069 75.507 57.2213 75.4586C57.3739 75.4102 58.0455 75.3499 58.7145 75.3244C59.3832 75.2989 60.0979 75.2126 60.3023 75.1327C60.5063 75.0525 60.9949 74.9587 61.3872 74.9246C61.7798 74.8901 62.1248 74.838 62.154 74.8091C62.3363 74.6265 63.4707 72.2182 63.4714 72.0116C63.4725 71.6651 63.7253 71.2222 63.9218 71.2222C64.011 71.2222 64.2893 71.0235 64.5398 70.7805C65.1739 70.1659 66.0424 70.3192 66.0405 71.0452C66.0394 71.4716 66.0694 71.4971 66.6657 71.5747C67.8173 71.7255 68.0607 71.796 67.9647 71.9516C67.905 72.048 67.9549 72.0705 68.1023 72.0142C68.2294 71.9651 68.3333 71.9846 68.3333 72.0566C68.3333 72.3307 67.6497 72.6146 66.2798 72.9094C65.1064 73.1621 64.8225 73.2742 64.6358 73.5592C64.4644 73.821 64.4558 73.887 64.6009 73.833C66.0698 73.2855 66.6604 73.4074 66.879 74.3036C66.9638 74.6509 66.9327 74.6831 66.4365 74.763C65.2643 74.9524 63.9484 75.2932 63.7782 75.4522C63.4853 75.7252 63.1695 76.9181 63.3728 76.9826C63.7122 77.0906 65.2752 77.1397 65.1094 77.0374C64.9155 76.9174 64.9587 76.8956 66.0072 76.5844C66.3979 76.4681 66.6668 76.4437 66.6668 76.5247C66.6668 76.6039 66.8412 76.6226 67.0834 76.5694C67.35 76.5109 67.5 76.533 67.5 76.6312C67.5 76.7156 67.3125 76.8221 67.0834 76.8679C66.8517 76.9144 66.6668 77.0404 66.6668 77.1517C66.6668 77.2927 66.7542 77.3242 66.9608 77.2586C67.6298 77.0464 67.0935 77.5485 66.3188 77.8597C63.9308 78.8197 61.9444 78.1185 61.9444 76.3159V75.8265L60.8682 76.1771C59.3907 76.6582 56.9423 77.6149 56.5598 77.8609C55.9114 78.2775 54.5835 77.6527 54.5835 76.9312C54.5835 76.0912 55.8012 73.6024 57.0975 71.7922C57.5483 71.1634 57.9165 70.5904 57.9165 70.5187C57.9165 70.2982 58.278 70.3747 58.662 70.6766ZM86.2977 70.6267C86.3633 70.6672 86.3824 70.8731 86.34 71.0842C86.2579 71.4952 86.5605 71.6389 87.5074 71.6389C87.7215 71.6389 87.9799 71.7221 88.0816 71.8237C88.1832 71.9254 88.3441 71.9827 88.4389 71.9509C88.5334 71.9194 88.611 71.9621 88.611 72.0457C88.611 72.288 87.5326 72.7099 86.2313 72.9765C85.3872 73.1494 84.9833 73.3001 84.8674 73.4857C84.6323 73.8626 84.7024 73.8746 85.6534 73.6196C86.6033 73.3654 86.8482 73.4512 87.1062 74.1289C87.2693 74.5582 86.9682 74.8316 86.3277 74.8365C86.094 74.8384 85.4652 74.9509 84.9304 75.0866L83.9584 75.3337L83.6858 76.1186C83.5358 76.5502 83.442 76.9305 83.4773 76.9635C83.6097 77.0865 85.3966 77.1319 85.3726 77.0119C85.3587 76.9429 85.6909 76.77 86.1113 76.6279C87.0402 76.3129 87.0165 76.3151 86.8125 76.5611C86.67 76.7325 86.7188 76.7411 87.1557 76.6204C87.7999 76.4426 87.9766 76.5881 87.3867 76.8105C87.1437 76.9024 86.9445 77.0644 86.9445 77.1701C86.9445 77.2845 87.0293 77.3306 87.1527 77.283C87.2674 77.2391 87.3612 77.256 87.3612 77.3205C87.3612 77.7454 85.3009 78.3607 84.1564 78.2779C82.0249 78.1237 81.5633 76.4816 82.9032 73.8184C83.3134 73.0035 83.6637 72.195 83.6817 72.0225C83.6997 71.8496 83.7226 71.6284 83.7323 71.5305C83.7421 71.4326 83.8594 71.3126 83.9929 71.2639C84.1268 71.2151 84.4474 70.9931 84.7062 70.77C85.1599 70.3785 85.8027 70.3207 86.2977 70.6267ZM73.4164 70.8139C74.0655 71.2151 74.2227 72.1369 73.962 74.0156C73.8878 74.5511 73.9032 74.8256 74.0104 74.892C74.3014 75.072 74.1934 75.6435 73.8593 75.6919C73.5383 75.738 73.4438 76.0005 73.2679 77.3332C73.0411 79.053 72.9874 79.1396 72.3702 78.7751C71.8478 78.4665 71.7563 78.0754 71.9674 77.0531C72.1935 75.9574 72.1395 75.9397 70.7404 76.6511C69.5659 77.2481 69.528 77.283 69.2674 78.0045C68.8992 79.0241 67.8679 78.72 67.5492 77.4982C67.2728 76.4377 71.796 70.5465 72.9004 70.5285C72.9297 70.5281 73.1618 70.6567 73.4164 70.8139ZM76.584 70.875C77.2939 71.5327 77.6074 73.1857 77.2598 74.4371C76.9275 75.6337 77.5598 75.2175 79.3362 73.0706C80.1728 72.06 80.6663 71.6389 81.0154 71.6389C81.1208 71.6389 81.3218 71.5117 81.4624 71.3569C81.6027 71.2016 81.8157 71.0906 81.9353 71.1101C82.0549 71.1296 82.2405 71.091 82.3482 71.0235C82.6823 70.8142 83.4353 70.7872 83.5103 70.9815C83.5815 71.1675 81.9811 73.1351 81.7362 73.1629C81.6597 73.1715 81.4609 73.3477 81.2948 73.5544C80.3686 74.7056 79.9062 75.2325 78.5963 76.6279C76.9073 78.4282 76.5867 78.5359 75.9559 77.5151C75.6649 77.0441 75.6593 76.9541 75.771 74.4386C75.8344 73.0132 75.8723 71.5504 75.8554 71.1874C75.8194 70.416 76.0035 70.3369 76.584 70.875ZM27.912 71.0801C28.6433 71.601 28.5743 72.9071 27.819 72.8374C27.5817 72.8152 27.4467 72.7301 27.4714 72.618C27.576 72.1511 25.0587 72.9214 24.897 73.4059C24.867 73.4962 25.1903 73.7666 25.6155 74.0066C26.0408 74.2466 26.4244 74.5009 26.4679 74.571C26.5114 74.6415 26.6044 74.6636 26.6742 74.6205C27.045 74.391 27.5595 76.1291 27.255 76.5825C27.0237 76.9264 25.8124 77.7326 25.3872 77.8252C25.1363 77.8804 24.7905 78.0349 24.6192 78.1691C24.0488 78.6161 23.3775 78.6454 22.9002 78.2434C22.6684 78.0484 22.422 77.889 22.3523 77.889C22.2829 77.889 22.1284 77.655 22.0088 77.3692C21.6679 76.5532 22.1475 75.8385 22.6388 76.4306C23.013 76.8814 25.2777 76.2847 25.2777 75.7354C25.2777 75.5411 24.2903 74.6944 24.0642 74.6944C23.5557 74.6944 23.0127 73.002 23.3307 72.4076C23.9547 71.2421 26.9288 70.38 27.912 71.0801ZM7.4659 71.0595C8.13603 71.4847 8.56353 72.9502 7.93353 72.6634C6.6484 72.078 2.64003 75.3746 3.76128 76.095C4.27053 76.4224 6.0079 75.9292 6.40878 75.3442C7.15165 74.2586 7.50528 73.9957 7.92716 74.214C8.70528 74.616 8.68766 75.3521 7.87991 76.1839C7.56641 76.5067 7.29678 76.8817 7.28028 77.0175C7.26378 77.1529 7.11453 77.6077 6.94878 78.0277C6.78303 78.4477 6.53215 79.1284 6.39153 79.5397C6.15828 80.2226 5.93741 80.52 5.65991 80.5256C5.60253 80.5267 5.55566 80.4652 5.55566 80.3887C5.55566 80.3126 5.44203 80.25 5.3029 80.25C5.16378 80.25 4.9084 80.0869 4.73515 79.8877L4.42016 79.5255L4.79815 78.6724C5.0059 78.2032 5.2354 77.7439 5.30815 77.652C5.56165 77.331 5.27741 77.2316 4.30503 77.301L3.32553 77.3711L2.75965 76.7621C0.997904 74.8654 5.28265 69.6731 7.4659 71.0595ZM14.241 71.1686C14.4293 71.292 14.5834 71.4889 14.5834 71.6059C14.5834 71.7232 14.9355 72.144 15.3657 72.5411C16.3729 73.4711 16.5278 74.2657 15.9075 75.3236C15.7005 75.6772 15.4973 75.9326 15.456 75.8914C15.4148 75.8501 15.117 76.0324 14.7942 76.2971C14.4717 76.5615 14.136 76.7779 14.0483 76.7779C13.9605 76.7779 13.8889 76.8394 13.8889 76.9147C13.8889 77.0974 12.9105 77.4997 12.681 77.4116C12.5813 77.3734 12.4999 77.4019 12.4999 77.4746C12.4999 78.42 9.79541 77.8522 9.31353 76.806C8.26315 74.5245 12.3049 69.9004 14.241 71.1686ZM41.4398 71.2324C41.6408 71.3906 41.8054 71.6036 41.8054 71.7056C41.8054 71.8076 42.1129 72.1672 42.4883 72.5047C43.2094 73.1531 43.5747 73.9946 43.3962 74.5972C43.26 75.0566 42.621 75.9499 42.4875 75.867C42.423 75.8272 42.2907 75.9221 42.1935 76.0781C42.096 76.2337 41.9359 76.3612 41.8373 76.3612C41.7387 76.3612 41.6243 76.4486 41.5834 76.5559C41.5422 76.6627 41.4034 76.7869 41.2752 76.8315C41.1469 76.8761 40.8323 77.0407 40.5765 77.1975C40.3073 77.3621 39.9998 77.4469 39.8472 77.3985C39.702 77.3524 39.5835 77.379 39.5835 77.4581C39.5835 78.4759 36.8044 77.8009 36.378 76.6792C35.4675 74.2852 39.6285 69.8077 41.4398 71.2324ZM71.8504 73.6702C71.3952 74.2717 70.9819 74.8331 70.932 74.9179C70.8818 75.0026 71.1799 74.9404 71.5943 74.7791C72.1114 74.5777 72.3615 74.3992 72.3923 74.2084C72.417 74.0554 72.5074 73.944 72.5929 73.9605C72.7988 73.9999 72.9645 73.0886 72.8037 72.8014C72.7017 72.6187 72.5224 72.7819 71.8504 73.6702ZM13.0519 73.395C11.7724 74.2459 10.233 76.2221 10.8495 76.2221C11.3622 76.2221 14.058 74.9051 14.4432 74.4664L14.868 73.9826L14.5519 73.5825C14.1833 73.1149 13.5852 73.0402 13.0519 73.395ZM40.1003 73.4306C39.2427 73.9882 37.7779 75.7009 37.7779 76.146C37.7779 76.3639 38.6892 76.0421 40.7978 75.0787C41.7064 74.6636 42.0627 74.0861 41.7057 73.6061C41.3652 73.1475 40.6549 73.0702 40.1003 73.4306ZM17.7105 76.9211C17.9172 77.3284 18.0192 77.6929 17.9558 77.7956C17.2133 78.9982 15.8157 80.25 15.2157 80.25C14.9715 80.25 15.3139 79.1876 15.8427 78.3056C16.0485 77.9617 16.299 77.3524 16.3988 76.9515C16.6594 75.9049 17.1893 75.8925 17.7105 76.9211ZM49.8207 76.8472C49.9932 77.1529 50.1342 77.4964 50.1338 77.6111C50.1327 78.1781 48.0349 80.2369 47.4469 80.2477C47.187 80.2526 47.4885 79.17 47.9682 78.375C48.2667 77.8811 48.5074 77.2699 48.5603 76.8746C48.681 75.9671 49.3159 75.9532 49.8207 76.8472Z" fill="#3CFBAB"/>
<mask id="path-4-inside-2_71_183" fill="white">
<path fill-rule="evenodd" clip-rule="evenodd" d="M82.9168 71.0606C82.8024 71.184 82.7086 71.328 82.7086 71.3809C82.7086 71.4337 82.6618 71.5237 82.6044 71.5811C82.547 71.6381 82.5001 71.7319 82.5001 71.7885C82.5001 71.9404 82.9235 71.853 82.9306 71.6996C82.934 71.628 83.0229 71.4742 83.1279 71.358C83.2333 71.2417 83.2756 71.0767 83.2224 70.9912C83.1549 70.884 83.0611 70.9053 82.9168 71.0606ZM6.49476 71.0426C6.66764 71.076 6.91776 71.0745 7.05051 71.04C7.18326 71.0051 7.04189 70.9777 6.73626 70.9796C6.43064 70.9811 6.32189 71.0096 6.49476 71.0426ZM32.6769 71.6389C32.6769 71.9827 32.7039 72.1233 32.7369 71.9512C32.7703 71.7795 32.7703 71.4982 32.7369 71.3265C32.7039 71.1543 32.6769 71.295 32.6769 71.6389ZM81.4726 71.7367C81.1749 72.0679 80.9563 72.3626 80.9866 72.3922C81.017 72.4215 81.2833 72.1672 81.5788 71.8267C82.2733 71.0257 82.1821 70.9481 81.4726 71.7367ZM3.67214 72.6457L3.26414 73.0972L3.71526 72.6892C4.13601 72.309 4.23051 72.1946 4.12326 72.1946C4.09926 72.1946 3.89639 72.3975 3.67214 72.6457ZM82.1649 72.4207C82.1844 72.5066 82.1274 72.6622 82.0378 72.7657C81.9485 72.8692 82.0471 72.8036 82.2571 72.6195C82.6423 72.282 82.8061 72.0217 82.4443 72.3221C82.337 72.411 82.2223 72.4342 82.1893 72.3738C82.1563 72.3135 82.145 72.3345 82.1649 72.4207ZM75.8713 73.0279C75.8713 73.3714 75.8983 73.512 75.9316 73.3402C75.9646 73.1685 75.9646 72.8872 75.9316 72.7151C75.8983 72.5434 75.8713 72.684 75.8713 73.0279ZM48.5499 73.7962C48.4018 73.9083 48.3429 73.9998 48.4194 73.9998C48.4955 73.9998 48.6796 73.9083 48.8278 73.7962C48.9759 73.6837 49.0348 73.5922 48.9586 73.5922C48.8821 73.5922 48.6984 73.6837 48.5499 73.7962ZM32.5348 73.9567C32.6686 73.9916 32.8873 73.9916 33.0211 73.9567C33.1546 73.9219 33.0451 73.8934 32.7778 73.8934C32.5104 73.8934 32.4013 73.9219 32.5348 73.9567ZM38.3443 74.529C38.3383 74.6291 38.2711 74.6722 38.1946 74.625C38.1181 74.5777 38.0555 74.6055 38.0555 74.6861C38.0555 74.7671 38.126 74.8335 38.2115 74.8335C38.3154 74.8335 38.3049 74.9149 38.1811 75.0765C38.0784 75.21 38.1646 75.168 38.3724 74.9827C38.7436 74.652 38.873 74.463 38.6233 74.6175C38.5531 74.661 38.4643 74.6175 38.4256 74.5219C38.3713 74.3865 38.3529 74.388 38.3443 74.529ZM62.1515 74.8357C62.1035 74.9134 62.0128 74.9448 61.9494 74.9058C61.8864 74.8668 61.799 74.9284 61.7551 75.0424C61.7113 75.1567 61.7315 75.2501 61.8001 75.2501C61.9254 75.2501 62.3611 74.865 62.3611 74.754C62.3611 74.6452 62.24 74.6925 62.1515 74.8357ZM34.2508 75.0536C34.2043 75.1747 34.2335 75.378 34.316 75.5051C34.4525 75.7158 34.4589 75.7147 34.3899 75.4931C34.3483 75.3592 34.3644 75.2501 34.4259 75.2501C34.487 75.2501 34.5373 75.1563 34.5373 75.0416C34.5373 74.7671 34.358 74.7746 34.2508 75.0536ZM9.20976 75.7361C9.21051 76.1944 9.23639 76.3654 9.26751 76.1156C9.29826 75.8659 9.29789 75.4908 9.26601 75.2823C9.23451 75.0735 9.20901 75.2779 9.20976 75.7361ZM56.6236 75.0686C56.4654 75.3247 56.912 75.3881 57.1081 75.1376C57.2709 74.9295 57.2656 74.9231 57.0624 75.0821C56.8813 75.2235 56.8205 75.225 56.7751 75.0889C56.735 74.9689 56.6893 74.9629 56.6236 75.0686ZM60.6946 75.1406C60.6946 75.2794 60.9616 75.2655 61.3198 75.1087C61.5459 75.0094 61.514 74.9906 61.1461 75.009C60.8979 75.0213 60.6946 75.0806 60.6946 75.1406ZM2.25464 75.6667C2.25464 75.9341 2.28314 76.0432 2.31801 75.9097C2.35289 75.7759 2.35289 75.5572 2.31801 75.4237C2.28314 75.2899 2.25464 75.3994 2.25464 75.6667ZM75.7389 76.2221C75.7389 76.7186 75.7644 76.9219 75.7951 76.6736C75.8259 76.4254 75.8259 76.0192 75.7951 75.771C75.7644 75.5227 75.7389 75.7256 75.7389 76.2221ZM79.0906 75.9791L78.5416 76.5694L79.1323 76.0204C79.4566 75.7185 79.7225 75.453 79.7225 75.4301C79.7225 75.3251 79.6014 75.4301 79.0906 75.9791ZM33.8296 75.9656C33.5664 76.4936 33.5683 76.4539 33.8064 76.4539C33.9226 76.4539 33.9691 76.3695 33.9215 76.2457C33.8701 76.1115 33.899 76.0728 34.0029 76.1373C34.1113 76.2041 34.1338 76.1587 34.0723 75.9982C34.0104 75.8377 34.0333 75.7923 34.1416 75.8595C34.2466 75.9243 34.274 75.8842 34.2196 75.7432C34.1068 75.4489 34.0801 75.4642 33.8296 75.9656ZM7.69964 76.257L7.29164 76.7085L7.74314 76.3005C8.16389 75.9202 8.25839 75.8055 8.15114 75.8055C8.12714 75.8055 7.92426 76.0087 7.69964 76.257ZM72.0601 76.4051C72.1003 76.6785 72.1546 76.7482 72.2311 76.6249C72.2926 76.5251 72.3121 76.3939 72.2743 76.3331C72.2368 76.272 72.272 76.2221 72.353 76.2221C72.434 76.2221 72.5 76.173 72.5 76.113C72.5 76.053 72.3879 76.0039 72.2506 76.0039C72.0549 76.0039 72.014 76.0901 72.0601 76.4051ZM41.4834 76.4651C41.285 76.6635 41.2186 76.6736 41.1238 76.5199C41.0521 76.404 40.9738 76.3852 40.9209 76.4707C40.7491 76.749 41.2835 76.7715 41.6285 76.5004C41.8228 76.3474 41.9244 76.2221 41.8543 76.2221C41.7838 76.2221 41.6169 76.3316 41.4834 76.4651ZM45.5079 76.5285C45.464 76.6972 45.4565 76.8637 45.4918 76.899C45.527 76.9342 45.5555 76.8862 45.5555 76.7929C45.5555 76.6991 45.6125 76.6575 45.6815 76.7002C45.7509 76.743 45.7749 76.653 45.7348 76.5004C45.6425 76.1464 45.6069 76.1508 45.5079 76.5285ZM13.7848 76.5348C13.8166 76.6301 13.9479 76.7175 14.0769 76.7287C14.258 76.7448 14.2629 76.7347 14.0983 76.6837C13.9813 76.6473 13.9213 76.56 13.9651 76.4895C14.0086 76.419 13.973 76.3612 13.8856 76.3612C13.7983 76.3612 13.7529 76.4392 13.7848 76.5348ZM31.8058 76.7085C31.8058 76.8229 31.8616 76.9166 31.9299 76.9166C31.9978 76.9166 32.0896 76.8229 32.1335 76.7085C32.1823 76.5814 32.1339 76.5 32.0098 76.5C31.8976 76.5 31.8058 76.5937 31.8058 76.7085ZM66.0073 76.5978C65.5861 76.6792 65.6098 76.8472 66.0418 76.8472C66.2326 76.8472 66.389 76.7692 66.389 76.6736C66.389 76.578 66.3733 76.5086 66.3541 76.5187C66.3354 76.5292 66.179 76.5648 66.0073 76.5978ZM86.2153 76.6042C85.937 76.6672 85.898 76.8544 86.1328 76.9995C86.2389 77.0651 86.255 77.037 86.1804 76.9162C86.0964 76.7805 86.1444 76.7539 86.3671 76.8124C86.5321 76.8555 86.6668 76.8379 86.6668 76.773C86.6668 76.6042 86.4958 76.5405 86.2153 76.6042ZM6.89001 77.2751C6.76889 77.5905 6.78576 77.7499 6.94026 77.7499C7.01414 77.7499 7.03889 77.6561 6.99464 77.5417C6.95076 77.427 6.98414 77.3332 7.06851 77.3332C7.15326 77.3332 7.22226 77.271 7.22226 77.1945C7.22226 76.9747 6.98301 77.0328 6.89001 77.2751ZM33.1194 77.2035C32.9611 77.4596 33.1708 77.5159 33.4063 77.2804C33.6005 77.0861 33.6024 77.0553 33.4209 77.0553C33.3054 77.0553 33.1696 77.1221 33.1194 77.2035ZM63.578 77.1536C63.7509 77.187 64.001 77.1859 64.1338 77.151C64.2665 77.1161 64.1251 77.0891 63.8195 77.0906C63.5139 77.0921 63.4055 77.1206 63.578 77.1536ZM83.7849 77.1514C83.9184 77.1862 84.1374 77.1862 84.2709 77.1514C84.4048 77.1165 84.2953 77.0876 84.0279 77.0876C83.7605 77.0876 83.651 77.1165 83.7849 77.1514ZM55.7293 77.9846C55.8631 78.0195 56.0818 78.0195 56.2153 77.9846C56.3491 77.9497 56.2396 77.9212 55.9723 77.9212C55.7049 77.9212 55.5958 77.9497 55.7293 77.9846Z"/>
</mask>
<path fill-rule="evenodd" clip-rule="evenodd" d="M82.9168 71.0606C82.8024 71.184 82.7086 71.328 82.7086 71.3809C82.7086 71.4337 82.6618 71.5237 82.6044 71.5811C82.547 71.6381 82.5001 71.7319 82.5001 71.7885C82.5001 71.9404 82.9235 71.853 82.9306 71.6996C82.934 71.628 83.0229 71.4742 83.1279 71.358C83.2333 71.2417 83.2756 71.0767 83.2224 70.9912C83.1549 70.884 83.0611 70.9053 82.9168 71.0606ZM6.49476 71.0426C6.66764 71.076 6.91776 71.0745 7.05051 71.04C7.18326 71.0051 7.04189 70.9777 6.73626 70.9796C6.43064 70.9811 6.32189 71.0096 6.49476 71.0426ZM32.6769 71.6389C32.6769 71.9827 32.7039 72.1233 32.7369 71.9512C32.7703 71.7795 32.7703 71.4982 32.7369 71.3265C32.7039 71.1543 32.6769 71.295 32.6769 71.6389ZM81.4726 71.7367C81.1749 72.0679 80.9563 72.3626 80.9866 72.3922C81.017 72.4215 81.2833 72.1672 81.5788 71.8267C82.2733 71.0257 82.1821 70.9481 81.4726 71.7367ZM3.67214 72.6457L3.26414 73.0972L3.71526 72.6892C4.13601 72.309 4.23051 72.1946 4.12326 72.1946C4.09926 72.1946 3.89639 72.3975 3.67214 72.6457ZM82.1649 72.4207C82.1844 72.5066 82.1274 72.6622 82.0378 72.7657C81.9485 72.8692 82.0471 72.8036 82.2571 72.6195C82.6423 72.282 82.8061 72.0217 82.4443 72.3221C82.337 72.411 82.2223 72.4342 82.1893 72.3738C82.1563 72.3135 82.145 72.3345 82.1649 72.4207ZM75.8713 73.0279C75.8713 73.3714 75.8983 73.512 75.9316 73.3402C75.9646 73.1685 75.9646 72.8872 75.9316 72.7151C75.8983 72.5434 75.8713 72.684 75.8713 73.0279ZM48.5499 73.7962C48.4018 73.9083 48.3429 73.9998 48.4194 73.9998C48.4955 73.9998 48.6796 73.9083 48.8278 73.7962C48.9759 73.6837 49.0348 73.5922 48.9586 73.5922C48.8821 73.5922 48.6984 73.6837 48.5499 73.7962ZM32.5348 73.9567C32.6686 73.9916 32.8873 73.9916 33.0211 73.9567C33.1546 73.9219 33.0451 73.8934 32.7778 73.8934C32.5104 73.8934 32.4013 73.9219 32.5348 73.9567ZM38.3443 74.529C38.3383 74.6291 38.2711 74.6722 38.1946 74.625C38.1181 74.5777 38.0555 74.6055 38.0555 74.6861C38.0555 74.7671 38.126 74.8335 38.2115 74.8335C38.3154 74.8335 38.3049 74.9149 38.1811 75.0765C38.0784 75.21 38.1646 75.168 38.3724 74.9827C38.7436 74.652 38.873 74.463 38.6233 74.6175C38.5531 74.661 38.4643 74.6175 38.4256 74.5219C38.3713 74.3865 38.3529 74.388 38.3443 74.529ZM62.1515 74.8357C62.1035 74.9134 62.0128 74.9448 61.9494 74.9058C61.8864 74.8668 61.799 74.9284 61.7551 75.0424C61.7113 75.1567 61.7315 75.2501 61.8001 75.2501C61.9254 75.2501 62.3611 74.865 62.3611 74.754C62.3611 74.6452 62.24 74.6925 62.1515 74.8357ZM34.2508 75.0536C34.2043 75.1747 34.2335 75.378 34.316 75.5051C34.4525 75.7158 34.4589 75.7147 34.3899 75.4931C34.3483 75.3592 34.3644 75.2501 34.4259 75.2501C34.487 75.2501 34.5373 75.1563 34.5373 75.0416C34.5373 74.7671 34.358 74.7746 34.2508 75.0536ZM9.20976 75.7361C9.21051 76.1944 9.23639 76.3654 9.26751 76.1156C9.29826 75.8659 9.29789 75.4908 9.26601 75.2823C9.23451 75.0735 9.20901 75.2779 9.20976 75.7361ZM56.6236 75.0686C56.4654 75.3247 56.912 75.3881 57.1081 75.1376C57.2709 74.9295 57.2656 74.9231 57.0624 75.0821C56.8813 75.2235 56.8205 75.225 56.7751 75.0889C56.735 74.9689 56.6893 74.9629 56.6236 75.0686ZM60.6946 75.1406C60.6946 75.2794 60.9616 75.2655 61.3198 75.1087C61.5459 75.0094 61.514 74.9906 61.1461 75.009C60.8979 75.0213 60.6946 75.0806 60.6946 75.1406ZM2.25464 75.6667C2.25464 75.9341 2.28314 76.0432 2.31801 75.9097C2.35289 75.7759 2.35289 75.5572 2.31801 75.4237C2.28314 75.2899 2.25464 75.3994 2.25464 75.6667ZM75.7389 76.2221C75.7389 76.7186 75.7644 76.9219 75.7951 76.6736C75.8259 76.4254 75.8259 76.0192 75.7951 75.771C75.7644 75.5227 75.7389 75.7256 75.7389 76.2221ZM79.0906 75.9791L78.5416 76.5694L79.1323 76.0204C79.4566 75.7185 79.7225 75.453 79.7225 75.4301C79.7225 75.3251 79.6014 75.4301 79.0906 75.9791ZM33.8296 75.9656C33.5664 76.4936 33.5683 76.4539 33.8064 76.4539C33.9226 76.4539 33.9691 76.3695 33.9215 76.2457C33.8701 76.1115 33.899 76.0728 34.0029 76.1373C34.1113 76.2041 34.1338 76.1587 34.0723 75.9982C34.0104 75.8377 34.0333 75.7923 34.1416 75.8595C34.2466 75.9243 34.274 75.8842 34.2196 75.7432C34.1068 75.4489 34.0801 75.4642 33.8296 75.9656ZM7.69964 76.257L7.29164 76.7085L7.74314 76.3005C8.16389 75.9202 8.25839 75.8055 8.15114 75.8055C8.12714 75.8055 7.92426 76.0087 7.69964 76.257ZM72.0601 76.4051C72.1003 76.6785 72.1546 76.7482 72.2311 76.6249C72.2926 76.5251 72.3121 76.3939 72.2743 76.3331C72.2368 76.272 72.272 76.2221 72.353 76.2221C72.434 76.2221 72.5 76.173 72.5 76.113C72.5 76.053 72.3879 76.0039 72.2506 76.0039C72.0549 76.0039 72.014 76.0901 72.0601 76.4051ZM41.4834 76.4651C41.285 76.6635 41.2186 76.6736 41.1238 76.5199C41.0521 76.404 40.9738 76.3852 40.9209 76.4707C40.7491 76.749 41.2835 76.7715 41.6285 76.5004C41.8228 76.3474 41.9244 76.2221 41.8543 76.2221C41.7838 76.2221 41.6169 76.3316 41.4834 76.4651ZM45.5079 76.5285C45.464 76.6972 45.4565 76.8637 45.4918 76.899C45.527 76.9342 45.5555 76.8862 45.5555 76.7929C45.5555 76.6991 45.6125 76.6575 45.6815 76.7002C45.7509 76.743 45.7749 76.653 45.7348 76.5004C45.6425 76.1464 45.6069 76.1508 45.5079 76.5285ZM13.7848 76.5348C13.8166 76.6301 13.9479 76.7175 14.0769 76.7287C14.258 76.7448 14.2629 76.7347 14.0983 76.6837C13.9813 76.6473 13.9213 76.56 13.9651 76.4895C14.0086 76.419 13.973 76.3612 13.8856 76.3612C13.7983 76.3612 13.7529 76.4392 13.7848 76.5348ZM31.8058 76.7085C31.8058 76.8229 31.8616 76.9166 31.9299 76.9166C31.9978 76.9166 32.0896 76.8229 32.1335 76.7085C32.1823 76.5814 32.1339 76.5 32.0098 76.5C31.8976 76.5 31.8058 76.5937 31.8058 76.7085ZM66.0073 76.5978C65.5861 76.6792 65.6098 76.8472 66.0418 76.8472C66.2326 76.8472 66.389 76.7692 66.389 76.6736C66.389 76.578 66.3733 76.5086 66.3541 76.5187C66.3354 76.5292 66.179 76.5648 66.0073 76.5978ZM86.2153 76.6042C85.937 76.6672 85.898 76.8544 86.1328 76.9995C86.2389 77.0651 86.255 77.037 86.1804 76.9162C86.0964 76.7805 86.1444 76.7539 86.3671 76.8124C86.5321 76.8555 86.6668 76.8379 86.6668 76.773C86.6668 76.6042 86.4958 76.5405 86.2153 76.6042ZM6.89001 77.2751C6.76889 77.5905 6.78576 77.7499 6.94026 77.7499C7.01414 77.7499 7.03889 77.6561 6.99464 77.5417C6.95076 77.427 6.98414 77.3332 7.06851 77.3332C7.15326 77.3332 7.22226 77.271 7.22226 77.1945C7.22226 76.9747 6.98301 77.0328 6.89001 77.2751ZM33.1194 77.2035C32.9611 77.4596 33.1708 77.5159 33.4063 77.2804C33.6005 77.0861 33.6024 77.0553 33.4209 77.0553C33.3054 77.0553 33.1696 77.1221 33.1194 77.2035ZM63.578 77.1536C63.7509 77.187 64.001 77.1859 64.1338 77.151C64.2665 77.1161 64.1251 77.0891 63.8195 77.0906C63.5139 77.0921 63.4055 77.1206 63.578 77.1536ZM83.7849 77.1514C83.9184 77.1862 84.1374 77.1862 84.2709 77.1514C84.4048 77.1165 84.2953 77.0876 84.0279 77.0876C83.7605 77.0876 83.651 77.1165 83.7849 77.1514ZM55.7293 77.9846C55.8631 78.0195 56.0818 78.0195 56.2153 77.9846C56.3491 77.9497 56.2396 77.9212 55.9723 77.9212C55.7049 77.9212 55.5958 77.9497 55.7293 77.9846Z" fill="#57BFA3" stroke="black" stroke-width="2" mask="url(#path-4-inside-2_71_183)"/>
<path fill-rule="evenodd" clip-rule="evenodd" d="M26.3543 70.9061C26.6026 70.9369 27.0087 70.9369 27.257 70.9061C27.5052 70.8754 27.3023 70.8499 26.8055 70.8499C26.309 70.8499 26.1061 70.8754 26.3543 70.9061ZM83.264 70.9444C83.2167 71.0209 83.2539 71.0835 83.3469 71.0835C83.4507 71.0835 83.4136 71.2035 83.2509 71.3959L82.9861 71.7082L83.2895 71.4521C83.456 71.3115 83.5587 71.1082 83.5175 71.001C83.4286 70.7692 83.3791 70.758 83.264 70.9444ZM81.8056 71.5695C81.4685 71.9134 81.2236 72.1946 81.2619 72.1946C81.2997 72.1946 81.6072 71.9134 81.9447 71.5695C82.2819 71.2256 82.5267 70.9444 82.4885 70.9444C82.4502 70.9444 82.1431 71.2256 81.8056 71.5695ZM72.6969 72.507C72.5521 72.6787 72.4891 72.7736 72.5574 72.7174C72.6252 72.6615 72.7662 72.7237 72.8705 72.8565C73.0392 73.0706 73.0497 73.053 72.968 72.6945C72.9031 72.4095 72.9226 72.3206 73.0355 72.3904C73.1228 72.4444 73.1945 72.4222 73.1945 72.3416C73.1945 72.1012 72.9777 72.1732 72.6969 72.507ZM4.64409 74.0347L4.23608 74.4863L4.68758 74.0783C5.10834 73.698 5.20283 73.5832 5.09558 73.5832C5.07158 73.5832 4.86834 73.7865 4.64409 74.0347ZM75.7344 74.7637C75.7355 75.1459 75.7621 75.2858 75.7944 75.0746C75.8262 74.8635 75.8251 74.5507 75.7925 74.3801C75.7595 74.2091 75.7332 74.382 75.7344 74.7637ZM82.1157 76.0834C82.1157 76.3508 82.1442 76.4602 82.1791 76.3264C82.214 76.1929 82.214 75.9739 82.1791 75.8404C82.1442 75.7065 82.1157 75.816 82.1157 76.0834ZM77.561 77.646L77.153 78.0971L77.6041 77.6891C77.8524 77.4649 78.0556 77.2616 78.0556 77.238C78.0556 77.1307 77.9412 77.2253 77.561 77.646Z" fill="#4CD4A4"/>
</svg>
